<svg width="30" height="31" viewBox="0 0 30 31" fill="none" xmlns="http://www.w3.org/2000/svg">
<path d="M23.75 23.3875V25.5C23.75 26.163 23.4866 26.7989 23.0178 27.2678C22.5489 27.7366 21.913 28 21.25 28H8.75C8.08696 28 7.45107 27.7366 6.98223 27.2678C6.51339 26.7989 6.25 26.163 6.25 25.5V20.875C5.675 20.65 4.9375 20.5 3.75 20.5C3.41848 20.5 3.10054 20.3683 2.86612 20.1339C2.6317 19.8995 2.5 19.5815 2.5 19.25C2.5 18.9185 2.6317 18.6005 2.86612 18.3661C3.10054 18.1317 3.41848 18 3.75 18C4.775 18 5.5875 18.1 6.25 18.2625V15.875C5.675 15.65 4.9375 15.5 3.75 15.5C3.41848 15.5 3.10054 15.3683 2.86612 15.1339C2.6317 14.8995 2.5 14.5815 2.5 14.25C2.5 13.9185 2.6317 13.6005 2.86612 13.3661C3.10054 13.1317 3.41848 13 3.75 13C4.775 13 5.5875 13.1 6.25 13.2625V10.875C5.675 10.65 4.9375 10.5 3.75 10.5C3.41848 10.5 3.10054 10.3683 2.86612 10.1339C2.6317 9.89946 2.5 9.58152 2.5 9.25C2.5 8.91848 2.6317 8.60054 2.86612 8.36612C3.10054 8.1317 3.41848 8 3.75 8C4.775 8 5.5875 8.1 6.25 8.2625V5.5C6.25 4.83696 6.51339 4.20107 6.98223 3.73223C7.45107 3.26339 8.08696 3 8.75 3H21.25C21.913 3 22.5489 3.26339 23.0178 3.73223C23.4866 4.20107 23.75 4.83696 23.75 5.5V8.2C25.975 8.5875 26.925 9.4125 27.1375 9.6125C27.625 10.1 27.625 10.9 27.1375 11.3875C26.65 11.875 26 11.8625 25.3625 11.3875C25.3625 11.3875 24.0625 10.5 21.25 10.5C19.675 10.5 18.6375 11.0125 17.4375 11.625C16.1375 12.2625 14.675 13 12.5 13C12.05 13 11.6375 13 11.25 12.95V10.4375C11.625 10.5 12.0375 10.5 12.5 10.5C14.075 10.5 15.1125 9.9875 16.3125 9.3875C17.6125 8.7375 19.0875 8 21.25 8V5.5H8.75V25.5H21.25V23C23.125 23 23.7125 23.3625 23.75 23.3875ZM21.25 13C19.0875 13 17.6125 13.7375 16.3125 14.3875C15.1125 14.9875 14.075 15.5 12.5 15.5C12.0375 15.5 11.625 15.5 11.25 15.4375V17.95C11.6375 18 12.05 18 12.5 18C14.675 18 16.1375 17.2625 17.4375 16.625C18.6375 16.025 19.675 15.5 21.25 15.5C24.0625 15.5 25.3625 16.3875 25.3625 16.3875C26 16.875 26.65 16.875 27.1375 16.3875C27.625 15.9 27.625 15.1125 27.1375 14.6125C26.875 14.35 25.3125 13 21.25 13ZM21.25 18C19.0875 18 17.6125 18.7375 16.3125 19.3875C15.1125 19.9875 14.075 20.5 12.5 20.5C12.0375 20.5 11.625 20.5 11.25 20.4375V22.95C11.6375 23 12.05 23 12.5 23C14.675 23 16.1375 22.2625 17.4375 21.625C18.6375 21.025 19.675 20.5 21.25 20.5C24.0625 20.5 25.3625 21.3875 25.3625 21.3875C26 21.875 26.65 21.875 27.1375 21.3875C27.625 20.9 27.625 20.1125 27.1375 19.6125C26.875 19.35 25.3125 18 21.25 18Z" fill="#C5523D"/>
</svg>
