<svg width="30" height="31" viewBox="0 0 30 31" fill="none" xmlns="http://www.w3.org/2000/svg">
<path d="M18.7582 4.5701C21.0604 4.07171 23.9164 4.09663 27.8029 5.06585C28.4726 5.23286 28.8797 5.90989 28.7124 6.57801C28.545 7.24614 27.8664 7.65238 27.1966 7.48537C23.5833 6.58428 21.1269 6.60934 19.2885 7.00734C17.4444 7.40655 16.1187 8.19834 14.7144 9.05454L14.6092 9.11868C13.2555 9.94456 11.7564 10.8591 9.77591 11.1884C7.72167 11.5299 5.29502 11.2279 2.03604 9.92734C1.39509 9.67155 1.08334 8.94584 1.33975 8.30642C1.59615 7.66699 2.32361 7.35599 2.96456 7.61179C5.95544 8.80538 7.90369 8.97124 9.365 8.72832C10.8486 8.48169 11.9797 7.79895 13.4107 6.92649C14.8187 6.06806 16.4617 5.06725 18.7582 4.5701Z" fill="#C5523D"/>
<path d="M27.8029 10.0538C23.9164 9.08455 21.0604 9.05963 18.7582 9.55801C16.4617 10.0552 14.8187 11.056 13.4107 11.9144C11.9797 12.7869 10.8486 13.4696 9.365 13.7162C7.90369 13.9591 5.95544 13.7932 2.96456 12.5997C2.32361 12.3439 1.59615 12.6549 1.33975 13.2944C1.08334 13.9337 1.39509 14.6595 2.03604 14.9152C5.29502 16.2159 7.72167 16.5177 9.77591 16.1762C11.7564 15.847 13.2555 14.9325 14.6092 14.1066L14.7144 14.0425C16.1187 13.1862 17.4444 12.3945 19.2885 11.9952C21.1269 11.5972 23.5833 11.5722 27.1966 12.4733C27.8664 12.6403 28.545 12.2341 28.7124 11.5659C28.8797 10.8978 28.4726 10.2208 27.8029 10.0538Z" fill="#C5523D"/>
<path fill-rule="evenodd" clip-rule="evenodd" d="M23.7499 13.0333C23.3159 13.0333 22.9543 13.2574 22.7019 13.5965C22.6133 13.7163 22.4084 13.9965 22.1363 14.3888C21.7743 14.9104 21.2898 15.6353 20.8031 16.4444C20.3189 17.2495 19.8193 18.16 19.437 19.0496C19.071 19.9016 18.7488 20.8268 18.75 21.7646C18.7509 22.0279 18.7824 22.2924 18.8256 22.5515C18.8979 22.984 19.0446 23.5795 19.3506 24.1901C19.6591 24.8058 20.1415 25.4593 20.8885 25.956C21.6434 26.458 22.5936 26.75 23.7499 26.75C24.9061 26.75 25.8564 26.458 26.6111 25.956C27.3581 25.4593 27.8406 24.8058 28.1491 24.1903C28.4551 23.5795 28.602 22.984 28.6743 22.5516C28.7176 22.2921 28.7495 22.0269 28.7499 21.7634C28.7503 20.8255 28.4289 19.9018 28.0628 19.0496C27.6806 18.16 27.181 17.2495 26.6968 16.4444C26.2101 15.6353 25.7255 14.9104 25.3635 14.3888C25.0914 13.9965 24.8864 13.7163 24.7979 13.5965C24.5455 13.2574 24.1838 13.0333 23.7499 13.0333ZM25.765 20.0321C25.4441 19.2851 25.0063 18.481 24.553 17.7275C24.2774 17.2693 24.001 16.8378 23.7499 16.4593C23.4988 16.8378 23.2224 17.2693 22.9468 17.7275C22.4936 18.481 22.0558 19.2851 21.7349 20.0321L21.7166 20.0744C21.4958 20.588 21.2348 21.1953 21.2503 21.7626C21.2653 22.2114 21.3861 22.6746 21.5868 23.0749C21.7469 23.3946 21.9676 23.6764 22.2753 23.881C22.5751 24.0804 23.0311 24.256 23.7499 24.256C24.4686 24.256 24.9246 24.0804 25.2245 23.881C25.5321 23.6764 25.7529 23.3945 25.9131 23.0749C26.1138 22.6746 26.2346 22.2114 26.2496 21.7625C26.2653 21.1954 26.0041 20.5881 25.7833 20.0746L25.765 20.0321Z" fill="#C5523D"/>
<path d="M17.662 14.9135C18.6124 14.6059 19.341 15.595 18.8941 16.4865C18.69 16.8939 18.4604 17.2405 18.0039 17.4018C16.7825 17.8333 15.7707 18.4409 14.7144 19.0849L14.6092 19.149C13.2555 19.9749 11.7564 20.8894 9.77591 21.2186C7.72167 21.5601 5.29503 21.2583 2.03603 19.9576C1.39508 19.7019 1.08334 18.9761 1.33975 18.3368C1.59616 17.6973 2.32361 17.3863 2.96457 17.6421C5.95543 18.8356 7.9037 19.0015 9.365 18.7586C10.8486 18.512 11.9797 17.8293 13.4107 16.9568C14.7707 16.1276 16.1704 15.3964 17.662 14.9135Z" fill="#C5523D"/>
</svg>
